#!OML:ASF X:\für Bonn\!DataBase\2005_08_10_Bjorn_Final\c3d\bjorn.ASF
:FULLY-SPECIFIED
:DEGREES
46
root 0.195719 19.3094 3.26194 -174.855 -1.97061 175.963
lowerback -12.654 0.944446 -2.60356
upperback 4.98335 1.86103 -2.07236
thorax 12.6055 0.721026 -0.386308
lowerneck 7.68482 -3.57554 3.10683
upperneck 23.6289 -8.76292 0.9784
head 5.91943 -5.22057 -0.57083
rclavicle 1.39149e-014 1.63003e-014
rhumerus -1020.1 -6.03594 1047.36
rradius 23.8613
rwrist 29.6277
rhand -22.33 14.2885
rfingers 7.12502
rthumb 4.09011 -15.652
lclavicle 1.39149e-014 1.63003e-014
lhumerus 74.9381 4.73209 36.9816
lradius 18.7914
lwrist -41.9217
lhand -20.3778 3.04778
lfingers 7.12502
lthumb 5.97505 32.9435
rfemur -15.2604 -11.8608 10.51
rtibia 30.1121
rfoot -15.9404 9.84376
rtoes -18.1965
lfemur -13.8146 5.03575 -20.6946
ltibia 27.1365
lfoot -10.4034 -12.1385
ltoes -0.900112
47
root 0.199723 19.3042 3.20323 -174.912 -1.92735 175.966
lowerback -12.9123 0.923443 -2.67246
upperback 4.55031 1.86304 -2.12848
thorax 12.2657 0.731469 -0.401375
lowerneck 8.47145 -3.53398 3.31818
upperneck 23.9478 -8.88309 0.907108
head 5.89198 -5.34241 -0.615331
rclavicle 1.79403e-014 3.18055e-014
rhumerus -1020.63 -6.20264 1051.11
rradius 24.6285
rwrist 28.3543
rhand -22.5001 13.7808
rfingers 7.12502
rthumb 3.92581 -16.1628
lclavicle 1.79403e-014 3.18055e-014
lhumerus 74.5693 5.80666 33.2601
lradius 19.2176
lwrist -40.7938
lhand -20.4128 3.77647
lfingers 7.12502
lthumb 5.94127 33.6732
rfemur -15.0302 -11.8532 10.4733
rtibia 30.1609
rfoot -16.0794 9.95724
rtoes -18.3244
lfemur -13.5654 4.87531 -20.6499
ltibia 27.1813
lfoot -10.6413 -11.9815
ltoes -1.14991
48
root 0.204524 19.2984 3.14487 -174.941 -1.8613 175.977
lowerback -13.2054 0.916756 -2.74343
upperback 4.13839 1.88159 -2.18422
thorax 11.9723 0.746901 -0.411153
lowerneck 9.2122 -3.50832 3.57634
upperneck 24.2813 -9.02258 0.814817
head 5.87549 -5.47037 -0.676314
rclavicle 1.22501e-014 -1.15295e-014
rhumerus -1021.28 -6.41434 1054.82
rradius 25.4319
rwrist 26.9438
rhand -22.5219 13.2283
rfingers 7.12502
rthumb 3.90479 -16.7157
lclavicle 1.22501e-014 -1.15295e-014
lhumerus 74.3244 7.11671 31.1414
lradius 19.4901
lwrist -41.5458
lhand -20.3614 4.17611
lfingers 7.12502
lthumb 5.99088 34.0714
rfemur -14.8329 -11.8124 10.4483
rtibia 30.2081
rfoot -16.1649 10.0997
rtoes -18.0165
lfemur -13.3351 4.71718 -20.5933
ltibia 27.2188
lfoot -10.8255 -11.8065
ltoes -1.11926
49
root 0.209705 19.2934 3.08749 -174.977 -1.81511 175.982
lowerback -13.4633 0.914097 -2.80628
upperback 3.73773 1.89864 -2.25269
thorax 11.6724 0.7608 -0.440785
lowerneck 9.9258 -3.49362 3.8498
upperneck 24.5798 -9.16751 0.737352
head 5.85347 -5.59652 -0.734535
rclavicle 1.01877e-014 -1.09332e-014
rhumerus -1022.03 -6.75461 1058.29
rradius 26.1031
rwrist 25.8954
rhand -22.6479 12.824
rfingers 7.12502
rthumb 3.78313 -17.1221
lclavicle 1.01877e-014 -1.09332e-014
lhumerus 74.1276 8.50899 29.6845
lradius 19.6893
lwrist -42.8396
lhand -20.2613 4.47901
lfingers 7.12502
lthumb 6.08755 34.3716
rfemur -14.6294 -11.794 10.4225
rtibia 30.2554
rfoot -16.3006 10.1985
rtoes -18.1591
lfemur -13.1102 4.61072 -20.5424
ltibia 27.2521
lfoot -10.9705 -11.7251
ltoes -0.991024
50
root 0.214079 19.288 3.02992 -175.009 -1.75991 175.986
lowerback -13.7574 0.889038 -2.89711
upperback 3.37986 1.8869 -2.28225
thorax 11.4415 0.755349 -0.418746
lowerneck 10.6166 -3.46527 4.07672
upperneck 24.8692 -9.27735 0.601138
head 5.83162 -5.71085 -0.803049
rclavicle 1.15295e-014 5.96354e-015
rhumerus -1022.8 -7.12629 1061.71
rradius 26.6682
rwrist 25.1624
rhand -23.0789 12.3767
rfingers 7.12502
rthumb 3.36686 -17.5764
lclavicle 1.15295e-014 5.96354e-015
lhumerus 73.2923 9.77947 26.3076
lradius 20.1576
lwrist -41.9414
lhand -19.8241 5.11217
lfingers 7.12502
lthumb 6.50965 34.9921
rfemur -14.4247 -11.7934 10.3918
rtibia 30.2981
rfoot -16.4247 10.3342
rtoes -18.321
lfemur -12.8861 4.55979 -20.4948
ltibia 27.2875
lfoot -11.0907 -11.6909
ltoes -0.833676
